<svg width="130" height="130" viewBox="0 0 130 130" fill="none" xmlns="http://www.w3.org/2000/svg">
<path d="M129 1L1 129" stroke="#87C0F4" stroke-width="1.26562" stroke-miterlimit="10" stroke-dasharray="3.78 3.78"/>
<path d="M64.7277 126.44C98.8103 126.44 126.44 98.8105 126.44 64.7278C126.44 30.6452 98.8103 3.01575 64.7277 3.01575C30.6451 3.01575 3.01562 30.6452 3.01562 64.7278C3.01562 98.8105 30.6451 126.44 64.7277 126.44Z" fill="white"/>
<mask id="mask0_194_1342" style="mask-type:alpha" maskUnits="userSpaceOnUse" x="3" y="3" width="124" height="124">
<path d="M64.7277 126.44C98.8103 126.44 126.44 98.8105 126.44 64.7278C126.44 30.6452 98.8103 3.01575 64.7277 3.01575C30.6451 3.01575 3.01562 30.6452 3.01562 64.7278C3.01562 98.8105 30.6451 126.44 64.7277 126.44Z" fill="#C4C4C4"/>
</mask>
<g mask="url(#mask0_194_1342)">
<path d="M40.0124 38.0216C40.0124 38.0216 30.9051 31.3749 25.1866 31.4042C19.4697 31.4335 17.5911 37.6415 23.1709 43.4987C28.7507 49.3559 35.7485 53.9458 35.7485 53.9458C35.7485 53.9458 31.5695 69.9578 37.7071 80.7645C43.8447 91.5712 53.1274 98.5857 64.7539 103.235C76.3804 107.884 84.9604 108.68 84.9604 108.68L107.233 123.7L129.978 99.0356C129.978 99.0356 103.806 71.2291 97.9414 61.9387C92.075 52.6498 53.2445 33.1506 40.0124 38.0216Z" fill="#F9D2DD"/>
</g>
<path d="M32.4663 51.696L46.9913 61.5889L38.0523 37.1925L32.4663 51.696Z" fill="#F9ACC0"/>
<path d="M99.5917 89.8561C99.5917 89.8561 96.7162 89.4077 92.7914 87.3074C92.0271 86.899 90.5663 85.9113 89.4429 85.1331C89.4291 67.9715 84.854 54.5282 83.3562 50.5849C82.7752 50.2506 82.185 49.9177 81.5856 49.5849L74.0195 50.6497L80.5593 107.978C81.809 108.226 82.8245 108.392 83.5627 108.5C84.2576 107.6 85.0204 106.424 85.7585 104.914L85.2038 108.767L93.0072 114.029C93.0072 114.029 90.4461 107.076 91.8961 98.9123C93.0626 92.3448 99.5917 89.8561 99.5917 89.8561Z" fill="#F9ACC0"/>
<path d="M80.3051 101.305L43.538 101.492C40.7011 101.506 38.3696 99.1974 38.3542 96.3605L37.9952 25.7941C37.9813 22.9572 40.2897 20.6258 43.1266 20.6103L79.8937 20.4239C82.7306 20.41 85.062 22.7184 85.0775 25.5553L85.4365 96.1217C85.4504 98.9586 83.1405 101.292 80.3051 101.305Z" fill="#3D5CFF"/>
<path d="M77.6675 22.1698L71.4066 22.2022L71.4174 24.4658C71.4235 25.5753 70.519 26.4875 69.4095 26.4937L53.436 26.5754C52.3265 26.5815 51.4142 25.677 51.4081 24.5675L51.3973 22.3039L45.1364 22.3362C42.5229 22.3501 40.3949 24.4982 40.4088 27.1132L40.7524 94.5314C40.7663 97.1449 42.9144 99.2729 45.5293 99.2591L78.0619 99.0942C80.6754 99.0803 82.8035 96.9322 82.7896 94.3172L82.4459 26.899C82.4305 24.284 80.2809 22.1575 77.6675 22.1698Z" fill="white"/>
<path d="M49.605 43.9719L45.1529 44.0026C44.4436 44.0072 43.8611 43.2323 43.8577 42.2793L43.8325 35.6947C43.8291 34.7418 44.4059 33.9592 45.1152 33.9546L49.5673 33.9239C50.2766 33.9193 50.8591 34.6942 50.8625 35.6472L50.8876 42.2318C50.891 43.1832 50.3143 43.9658 49.605 43.9719Z" fill="#EAEAFF"/>
<path d="M58.6758 43.9719L54.2237 44.0026C53.5144 44.0072 52.9319 43.2323 52.9285 42.2793L52.9033 35.6947C52.8999 34.7418 53.4767 33.9592 54.186 33.9546L58.6381 33.9239C59.3474 33.9193 59.9299 34.6942 59.9333 35.6472L59.9584 42.2318C59.9618 43.1832 59.3851 43.9658 58.6758 43.9719Z" fill="#EAEAFF"/>
<path d="M67.7471 43.9719L63.295 44.0026C62.5857 44.0072 62.0032 43.2323 61.9998 42.2793L61.9746 35.6947C61.9712 34.7418 62.548 33.9592 63.2573 33.9546L67.7094 33.9239C68.4187 33.9193 69.0012 34.6942 69.0046 35.6472L69.0297 42.2318C69.0331 43.1832 68.4563 43.9658 67.7471 43.9719Z" fill="#EAEAFF"/>
<path d="M76.8179 43.9719L72.3658 44.0026C71.6565 44.0072 71.074 43.2323 71.0706 42.2793L71.0454 35.6947C71.042 34.7418 71.6188 33.9592 72.3281 33.9546L76.7802 33.9239C77.4895 33.9193 78.072 34.6942 78.0754 35.6472L78.1005 42.2318C78.1039 43.1832 77.5272 43.9658 76.8179 43.9719Z" fill="#EAEAFF"/>
<path d="M40.7182 92.2955C40.7244 92.2939 40.7305 92.2939 40.7382 92.2924L40.5317 51.6806L40.7182 92.2955Z" fill="#EAEAFF"/>
<path d="M48.4308 86.3798C50.9842 82.2115 49.4016 77.0586 49.4016 77.0586C49.4016 77.0586 51.9812 74.6239 51.7731 70.9086C51.5651 67.1918 47.3028 64.2887 47.3028 64.2887C47.3028 64.2887 50.9595 61.102 49.7191 56.0584C48.7483 52.1136 43.4088 51.1228 40.5288 50.7668L40.5334 51.6821L40.7399 92.294C43.3102 91.9519 46.2396 89.9548 48.4308 86.3798Z" fill="#EAEAFF"/>
<path d="M84.1176 78.8461L84.9451 59.0679L82.5874 54.9135L82.6937 75.7657C83.5027 77.6426 84.1176 78.8461 84.1176 78.8461Z" fill="#EAEAFF"/>
<path d="M79.3347 65.6925C80.1267 69.4216 81.5922 73.2154 82.6924 75.7657L82.5861 54.9135L78.2514 47.2735C78.2514 47.2719 77.9601 59.2189 79.3347 65.6925Z" fill="#EAEAFF"/>
<path d="M97.8957 87.1286C97.8957 87.1286 88.9304 90.6127 85.4017 77.9738C84.7344 75.5823 85.7037 71.1921 84.8115 69.6527C82.1996 65.1454 79.5014 59.9647 78.4735 56.2495C76.2469 48.1888 76.8787 40.1142 81.4121 38.9153C85.9456 37.7149 90.362 46.4367 91.8937 49.7913C93.4239 53.146 100.387 66.731 100.387 66.731L97.8957 87.1286Z" fill="#F9D2DD"/>
<path d="M27.0634 65.2564C28.5735 47.6572 44.4716 49.5294 47.8524 53.2123C51.2348 56.8952 48.9033 61.4471 46.8924 62.8016C44.8815 64.1561 43.4669 64.2902 43.4669 64.2902C43.4669 64.2902 49.0112 65.8281 49.623 70.5234C50.3226 75.9013 45.4485 76.8551 45.4485 76.8551C45.4485 76.8551 48.6583 78.937 47.8355 82.6399C47.0126 86.3428 42.4806 87.7112 38.4434 87.5648C34.4061 87.4153 25.3175 85.6108 27.0634 65.2564Z" fill="#F9D2DD"/>
<path d="M38.9971 53.1275L39.0356 60.6859C39.0356 60.6859 45.6694 61.6613 46.3228 57.7904C47.3983 51.4109 38.9971 53.1275 38.9971 53.1275Z" fill="#F9E1E8"/>
<path d="M39.1577 66.7604L39.1962 74.3187C39.1962 74.3187 45.83 75.2942 46.4834 71.4233C47.559 65.0422 39.1577 66.7604 39.1577 66.7604Z" fill="#F9E1E8"/>
<path d="M39.1143 78.5764L39.1466 84.9282C39.1466 84.9282 44.7218 85.748 45.2719 82.495C46.1764 77.134 39.1143 78.5764 39.1143 78.5764Z" fill="#F9E1E8"/>
<path d="M99.5919 89.8561C99.5919 89.8561 93.442 89.4016 88.5525 84.2116C83.6631 79.0217 85.3135 72.0258 85.3135 72.0258" stroke="#1F1F39" stroke-width="0.500521" stroke-miterlimit="10"/>
<path d="M45.4318 75.6285C43.014 76.1894 36.0674 76.738 36.0674 76.738L45.6151 76.812C46.3995 76.6024 49.6771 75.4899 49.6909 71.565C49.3103 73.5483 47.851 75.0676 45.4318 75.6285Z" fill="#F9ACC0"/>
<path d="M46.512 84.4628C44.1082 86.2488 40.8151 86.6387 38.3034 86.3567C35.7916 86.0747 32.3106 84.7772 30.2442 82.1237C29.05 80.5889 28.2363 79.1589 27.7617 78.2251C29.9514 86.4784 35.522 87.4554 38.4436 87.5632C42.2975 87.7035 46.603 86.4614 47.6986 83.1237C47.4258 83.6662 46.8403 84.2178 46.512 84.4628Z" fill="#F9ACC0"/>
<path d="M43.4673 64.2887C43.4673 64.2887 44.8819 64.1561 46.8928 62.8001C48.6881 61.5905 50.7329 57.8351 48.7497 54.425C49.1812 55.3172 49.4077 56.3512 49.1565 57.473C48.346 61.0866 45.9143 62.3409 42.5951 63.005C39.2759 63.6692 35.1924 63.9512 35.1924 63.9512L43.4673 64.2887Z" fill="#F9ACC0"/>
<path d="M35.1138 64.244L44.5875 64.3333" stroke="#1F1F39" stroke-width="0.500521" stroke-miterlimit="10" stroke-linecap="round"/>
<path d="M36.0767 76.7057L45.5504 76.7935" stroke="#1F1F39" stroke-width="0.500521" stroke-miterlimit="10" stroke-linecap="round"/>
<path d="M104.809 14.7743C96.7375 14.7743 90.1948 20.1352 90.1948 26.7478C90.1948 30.4139 92.2108 33.6908 95.3787 35.8874C95.4596 37.5594 95.1921 39.868 92.8098 40.9324C92.8084 40.9331 92.8069 40.9338 92.8054 40.9345C92.699 40.9737 92.6074 41.0433 92.5427 41.134C92.478 41.2248 92.4433 41.3324 92.4432 41.4426C92.4432 41.587 92.5024 41.7254 92.6078 41.8275C92.7132 41.9296 92.8562 41.9869 93.0052 41.9869C93.0187 41.9869 93.0314 41.9848 93.0448 41.9848C93.0477 41.9848 93.0506 41.9848 93.0535 41.9848C95.7898 41.9678 98.1126 40.536 99.7151 39.0233C100.223 38.5432 100.932 38.307 101.63 38.4344C102.653 38.6227 103.716 38.7214 104.809 38.7214C112.881 38.7214 119.423 33.3605 119.423 26.7478C119.423 20.1352 112.881 14.7743 104.809 14.7743Z" fill="#3D5CFF"/>
</svg>
