<svg width="260" height="260" viewBox="0 0 260 260" fill="none" xmlns="http://www.w3.org/2000/svg">
<path d="M200 0H60C26.8629 0 0 26.8629 0 60V200C0 233.137 26.8629 260 60 260H200C233.137 260 260 233.137 260 200V60C260 26.8629 233.137 0 200 0Z" fill="#D9F4F1"/>
<path d="M73.8867 49.4606L71.3477 32.4489L24.6289 36.0036L73.8867 49.4606Z" fill="#DADAF7"/>
<path d="M226.23 208.152C226.154 208.152 226.078 208.127 226.002 208.101C225.748 207.974 225.646 207.67 225.773 207.416C225.773 207.416 226.129 206.705 226.764 204.826C226.865 204.572 227.145 204.42 227.398 204.521C227.652 204.623 227.805 204.902 227.703 205.156C227.018 207.111 226.662 207.822 226.662 207.847C226.586 208.05 226.408 208.152 226.23 208.152ZM228.211 202.617C228.16 202.617 228.109 202.617 228.059 202.591C227.779 202.515 227.652 202.236 227.729 201.957C228.008 201.043 228.287 200.078 228.592 199.037C228.668 198.757 228.947 198.605 229.227 198.681C229.506 198.757 229.658 199.037 229.582 199.316C229.277 200.357 228.998 201.322 228.719 202.236C228.617 202.49 228.414 202.617 228.211 202.617ZM229.861 196.752C229.811 196.752 229.785 196.752 229.734 196.726C229.455 196.65 229.303 196.371 229.379 196.117C229.582 195.304 229.811 194.466 230.039 193.552L230.141 193.171C230.217 192.892 230.496 192.74 230.75 192.791C231.029 192.867 231.182 193.146 231.131 193.4L231.029 193.781C230.801 194.695 230.572 195.558 230.344 196.371C230.293 196.599 230.09 196.752 229.861 196.752ZM231.334 190.836C231.309 190.836 231.258 190.836 231.232 190.836C230.953 190.785 230.775 190.505 230.852 190.226C231.055 189.261 231.258 188.246 231.461 187.255C231.512 186.976 231.766 186.798 232.045 186.849C232.324 186.9 232.502 187.179 232.451 187.433C232.248 188.449 232.045 189.464 231.842 190.429C231.791 190.683 231.562 190.836 231.334 190.836ZM232.477 184.869C232.451 184.869 232.426 184.869 232.4 184.869C232.121 184.818 231.943 184.564 231.969 184.285C232.121 183.295 232.273 182.279 232.426 181.289C232.477 181.009 232.73 180.806 233.01 180.857C233.289 180.908 233.492 181.162 233.441 181.441C233.289 182.457 233.137 183.472 232.984 184.463C232.934 184.691 232.73 184.869 232.477 184.869ZM233.314 178.826C233.289 178.826 233.264 178.826 233.264 178.826C232.984 178.8 232.781 178.546 232.807 178.267C232.908 177.252 233.035 176.236 233.111 175.246C233.137 174.966 233.365 174.763 233.67 174.789C233.949 174.814 234.152 175.068 234.127 175.347C234.051 176.363 233.924 177.379 233.822 178.394C233.797 178.623 233.568 178.826 233.314 178.826ZM233.848 172.757H233.822C233.543 172.732 233.34 172.504 233.34 172.224C233.391 171.209 233.441 170.193 233.467 169.203C233.467 168.923 233.695 168.72 233.975 168.72C233.975 168.72 233.975 168.72 234 168.72C234.279 168.72 234.508 168.974 234.482 169.254C234.457 170.269 234.406 171.285 234.33 172.326C234.33 172.529 234.102 172.757 233.848 172.757ZM234.025 166.664C233.746 166.664 233.518 166.435 233.518 166.156C233.518 165.14 233.492 164.125 233.467 163.134C233.467 162.855 233.67 162.627 233.949 162.601C234.229 162.601 234.457 162.804 234.482 163.084C234.508 164.074 234.533 165.115 234.533 166.156C234.533 166.435 234.305 166.664 234.025 166.664ZM58.6523 163.16C57.5605 163.16 56.5195 163.084 55.5547 162.957C55.2754 162.931 55.0723 162.677 55.123 162.398C55.1484 162.119 55.4023 161.916 55.6816 161.966C56.6211 162.093 57.6113 162.144 58.6523 162.144C58.9316 162.144 59.1602 162.373 59.1602 162.652C59.1602 162.931 58.9316 163.16 58.6523 163.16ZM61.6992 163.033C61.4453 163.033 61.2168 162.83 61.1914 162.576C61.166 162.296 61.3691 162.043 61.6484 162.017C62.5879 161.941 63.6035 161.814 64.6445 161.636C64.9238 161.586 65.1777 161.789 65.2285 162.068C65.2793 162.347 65.0762 162.601 64.7969 162.652C63.7305 162.83 62.7148 162.957 61.75 163.033C61.7246 163.033 61.7246 163.033 61.6992 163.033ZM52.6602 162.373C52.6094 162.373 52.5586 162.373 52.5078 162.347C51.4668 162.043 50.4766 161.636 49.5879 161.154C49.334 161.027 49.2578 160.722 49.3848 160.468C49.5117 160.214 49.8164 160.138 50.0703 160.265C50.8828 160.722 51.7969 161.078 52.7871 161.382C53.0664 161.459 53.2188 161.738 53.1172 162.017C53.0664 162.22 52.8633 162.373 52.6602 162.373ZM67.7168 162.093C67.4883 162.093 67.2598 161.941 67.209 161.687C67.1582 161.408 67.3359 161.154 67.5898 161.078C68.5293 160.875 69.5195 160.646 70.5352 160.367C70.8145 160.291 71.0938 160.468 71.1445 160.722C71.2207 161.002 71.043 161.281 70.7891 161.332C69.7734 161.611 68.7578 161.839 67.793 162.043C67.793 162.093 67.7676 162.093 67.7168 162.093ZM73.6074 160.57C73.3789 160.57 73.1758 160.418 73.125 160.214C73.0488 159.935 73.2012 159.656 73.4551 159.58C74.3945 159.3 75.3594 158.996 76.3496 158.666C76.6035 158.589 76.9082 158.716 76.9844 158.996C77.0606 159.25 76.9336 159.554 76.6543 159.63C75.6641 159.961 74.6738 160.265 73.7344 160.545C73.709 160.57 73.6582 160.57 73.6074 160.57ZM233.797 160.57C233.543 160.57 233.314 160.367 233.289 160.088C233.213 159.072 233.111 158.056 233.01 157.066C232.984 156.787 233.188 156.533 233.441 156.507C233.721 156.482 233.975 156.66 234 156.939C234.127 157.929 234.229 158.945 234.305 159.986C234.33 160.265 234.127 160.519 233.848 160.519C233.822 160.57 233.822 160.57 233.797 160.57ZM47.3789 159.453C47.252 159.453 47.125 159.402 47.0234 159.326C46.2617 158.615 45.5762 157.802 44.9922 156.914C44.8398 156.685 44.8906 156.355 45.1445 156.203C45.373 156.05 45.7031 156.101 45.8555 156.355C46.4141 157.193 47.0488 157.929 47.7344 158.589C47.9375 158.767 47.9629 159.097 47.7598 159.3C47.6328 159.377 47.5059 159.453 47.3789 159.453ZM79.3965 158.64C79.1934 158.64 78.9902 158.513 78.9141 158.31C78.8125 158.056 78.9648 157.752 79.2188 157.65C80.1582 157.32 81.0977 156.939 82.0625 156.584C82.3164 156.482 82.6211 156.609 82.7227 156.863C82.8242 157.117 82.6973 157.422 82.4434 157.523C81.4785 157.904 80.5137 158.259 79.5742 158.615C79.5234 158.64 79.4473 158.64 79.3965 158.64ZM85.084 156.431C84.8809 156.431 84.7031 156.304 84.6269 156.127C84.5254 155.873 84.6523 155.568 84.9062 155.466C85.8203 155.086 86.7598 154.679 87.6992 154.248C87.9531 154.146 88.2578 154.248 88.3594 154.502C88.4609 154.755 88.3594 155.06 88.1055 155.162C87.166 155.568 86.2266 156 85.2871 156.38C85.2109 156.406 85.1348 156.431 85.084 156.431ZM233.061 154.527C232.807 154.527 232.604 154.349 232.553 154.095C232.4 153.257 232.248 152.42 232.07 151.632L231.969 151.125C231.918 150.845 232.07 150.591 232.35 150.515C232.629 150.464 232.883 150.617 232.959 150.896L233.061 151.404C233.238 152.216 233.416 153.054 233.568 153.918C233.619 154.197 233.441 154.451 233.162 154.502C233.137 154.527 233.111 154.527 233.061 154.527ZM44.002 154.425C43.7988 154.425 43.6211 154.298 43.5195 154.095C43.1387 153.181 42.834 152.191 42.5801 151.125C42.5039 150.845 42.6816 150.566 42.9609 150.515C43.2402 150.439 43.5195 150.617 43.5703 150.896C43.7988 151.912 44.1035 152.851 44.459 153.714C44.5605 153.968 44.4336 154.273 44.1797 154.375C44.1289 154.425 44.0527 154.425 44.002 154.425ZM90.6445 153.943C90.4414 153.943 90.2637 153.841 90.1875 153.664C90.0606 153.41 90.1875 153.105 90.4414 152.978C91.3555 152.547 92.2695 152.115 93.1836 151.658C93.4375 151.531 93.7422 151.632 93.8691 151.886C93.9961 152.14 93.8945 152.445 93.6406 152.572C92.7266 153.029 91.7871 153.461 90.873 153.892C90.7969 153.918 90.7207 153.943 90.6445 153.943ZM96.1289 151.252C95.9512 151.252 95.7734 151.15 95.6719 150.972C95.5449 150.718 95.6465 150.414 95.9004 150.287C96.7891 149.83 97.7031 149.347 98.5918 148.865C98.8457 148.738 99.1504 148.814 99.2773 149.068C99.4043 149.322 99.3281 149.627 99.0742 149.754C98.1856 150.236 97.2715 150.718 96.3828 151.175C96.2813 151.226 96.2051 151.252 96.1289 151.252ZM231.766 148.56C231.537 148.56 231.334 148.408 231.283 148.179C231.029 147.138 230.801 146.173 230.547 145.234C230.471 144.955 230.648 144.675 230.902 144.625C231.182 144.548 231.461 144.726 231.512 144.98C231.766 145.945 232.02 146.91 232.248 147.951C232.324 148.23 232.146 148.509 231.867 148.56C231.842 148.56 231.816 148.56 231.766 148.56ZM42.5547 148.535C42.3008 148.535 42.0723 148.357 42.0469 148.078C41.9199 147.113 41.8438 146.072 41.8184 145.005C41.8184 144.726 42.0215 144.498 42.3008 144.472C42.5801 144.447 42.8086 144.675 42.834 144.955C42.8594 145.996 42.9355 147.011 43.0625 147.951C43.0879 148.23 42.8848 148.484 42.6309 148.509C42.6055 148.535 42.5801 148.535 42.5547 148.535ZM101.486 148.332C101.309 148.332 101.131 148.23 101.055 148.078C100.928 147.824 101.004 147.519 101.258 147.392C102.146 146.884 103.01 146.377 103.898 145.869C104.152 145.716 104.457 145.818 104.584 146.047C104.736 146.3 104.635 146.605 104.406 146.732C103.543 147.24 102.654 147.773 101.766 148.255C101.639 148.306 101.563 148.332 101.486 148.332ZM106.717 145.234C106.539 145.234 106.387 145.158 106.285 145.005C106.133 144.777 106.209 144.447 106.463 144.295C107.326 143.761 108.189 143.228 109.027 142.67C109.256 142.517 109.586 142.593 109.738 142.822C109.891 143.05 109.814 143.38 109.586 143.533C108.748 144.091 107.859 144.625 106.996 145.158C106.92 145.209 106.818 145.234 106.717 145.234ZM230.217 142.67C229.988 142.67 229.785 142.517 229.734 142.314C229.455 141.349 229.15 140.359 228.846 139.42C228.77 139.14 228.896 138.861 229.176 138.785C229.455 138.709 229.734 138.836 229.811 139.115C230.115 140.08 230.42 141.07 230.699 142.035C230.775 142.314 230.623 142.593 230.344 142.67C230.318 142.644 230.268 142.67 230.217 142.67ZM42.3262 142.441C42.0215 142.441 41.8184 142.187 41.8184 141.908C41.8438 141.4 41.8691 140.867 41.8945 140.308C41.9199 139.826 41.9707 139.318 42.0723 138.81C42.123 138.531 42.377 138.353 42.6563 138.379C42.9355 138.429 43.1133 138.683 43.0879 138.963C43.0117 139.445 42.9609 139.927 42.9355 140.359C42.9102 140.892 42.8848 141.425 42.8594 141.933C42.834 142.238 42.6055 142.441 42.3262 142.441ZM111.846 141.933C111.693 141.933 111.516 141.857 111.414 141.705C111.262 141.476 111.312 141.146 111.541 140.994C112.379 140.435 113.217 139.851 114.055 139.267C114.283 139.115 114.613 139.166 114.766 139.394C114.918 139.623 114.867 139.953 114.639 140.105C113.801 140.689 112.963 141.273 112.125 141.832C112.049 141.908 111.947 141.933 111.846 141.933ZM116.848 138.404C116.695 138.404 116.543 138.328 116.441 138.201C116.264 137.972 116.314 137.668 116.543 137.49C117.355 136.88 118.168 136.271 118.98 135.662C119.209 135.484 119.514 135.535 119.691 135.763C119.869 135.992 119.818 136.297 119.59 136.474C118.803 137.084 117.965 137.718 117.152 138.328C117.051 138.379 116.949 138.404 116.848 138.404ZM228.363 136.855C228.16 136.855 227.957 136.728 227.881 136.525C227.551 135.56 227.195 134.621 226.84 133.681C226.738 133.427 226.865 133.123 227.145 133.021C227.398 132.92 227.703 133.047 227.805 133.326C228.16 134.265 228.516 135.23 228.846 136.195C228.947 136.449 228.795 136.754 228.541 136.83C228.465 136.83 228.414 136.855 228.363 136.855ZM43.291 136.449C43.2402 136.449 43.1895 136.449 43.1387 136.423C42.8594 136.347 42.7324 136.043 42.8086 135.789C43.1133 134.849 43.4687 133.884 43.9004 132.894C44.002 132.64 44.3066 132.513 44.5605 132.64C44.8145 132.742 44.9414 133.047 44.8145 133.3C44.3828 134.265 44.0273 135.205 43.748 136.093C43.6973 136.322 43.4941 136.449 43.291 136.449ZM121.672 134.697C121.52 134.697 121.367 134.621 121.266 134.519C121.088 134.291 121.113 133.986 121.342 133.808C122.129 133.173 122.916 132.513 123.678 131.879C123.881 131.701 124.211 131.726 124.389 131.929C124.566 132.132 124.541 132.463 124.338 132.64C123.576 133.3 122.789 133.961 121.977 134.595C121.9 134.646 121.773 134.697 121.672 134.697ZM226.18 131.142C225.977 131.142 225.799 131.015 225.723 130.838C225.342 129.898 224.936 128.959 224.504 128.045C224.377 127.791 224.504 127.486 224.758 127.384C225.012 127.257 225.316 127.384 225.418 127.638C225.824 128.552 226.256 129.517 226.637 130.457C226.738 130.711 226.611 131.015 226.357 131.117C226.307 131.142 226.256 131.142 226.18 131.142ZM45.6777 130.863C45.6016 130.863 45.5254 130.838 45.4492 130.812C45.1953 130.685 45.1191 130.38 45.2461 130.127C45.7031 129.263 46.2109 128.349 46.7695 127.461C46.9219 127.232 47.2266 127.156 47.4551 127.283C47.6836 127.435 47.7598 127.74 47.6328 127.968C47.0996 128.857 46.5918 129.746 46.1348 130.584C46.0332 130.761 45.8555 130.863 45.6777 130.863ZM126.318 130.736C126.191 130.736 126.039 130.685 125.938 130.558C125.76 130.355 125.76 130.025 125.988 129.847C126.75 129.162 127.486 128.476 128.223 127.791C128.426 127.588 128.756 127.613 128.934 127.816C129.137 128.019 129.111 128.349 128.908 128.527C128.172 129.213 127.436 129.923 126.648 130.609C126.547 130.711 126.42 130.736 126.318 130.736ZM130.711 126.547C130.584 126.547 130.457 126.496 130.355 126.394C130.152 126.191 130.152 125.886 130.355 125.683C131.066 124.972 131.777 124.236 132.463 123.5C132.666 123.297 132.971 123.297 133.174 123.474C133.377 123.677 133.377 123.982 133.199 124.185C132.514 124.922 131.803 125.658 131.066 126.394C130.99 126.496 130.863 126.547 130.711 126.547ZM48.8516 125.658C48.75 125.658 48.6484 125.632 48.5723 125.582C48.3438 125.429 48.293 125.099 48.4453 124.871C49.0039 124.058 49.6133 123.195 50.2227 122.382C50.4004 122.154 50.7051 122.103 50.9336 122.281C51.1621 122.459 51.2129 122.763 51.0352 122.992C50.4258 123.804 49.8164 124.642 49.2832 125.455C49.1816 125.582 49.0039 125.658 48.8516 125.658ZM223.666 125.582C223.488 125.582 223.285 125.48 223.209 125.302C222.777 124.388 222.295 123.5 221.838 122.611C221.711 122.357 221.812 122.052 222.041 121.925C222.295 121.798 222.6 121.9 222.727 122.129C223.209 123.017 223.666 123.957 224.123 124.871C224.25 125.125 224.148 125.429 223.895 125.556C223.818 125.582 223.742 125.582 223.666 125.582ZM134.875 122.103C134.748 122.103 134.646 122.052 134.545 121.976C134.342 121.798 134.316 121.468 134.494 121.265C135.154 120.504 135.814 119.716 136.449 118.955C136.627 118.726 136.957 118.701 137.16 118.879C137.389 119.056 137.414 119.386 137.236 119.589C136.602 120.377 135.941 121.164 135.256 121.925C135.154 122.052 135.027 122.103 134.875 122.103ZM52.4824 120.757C52.3809 120.757 52.2539 120.732 52.1523 120.656C51.9238 120.478 51.8984 120.148 52.0762 119.945C52.7109 119.158 53.3711 118.371 54.0313 117.584C54.209 117.38 54.5391 117.355 54.7422 117.533C54.9453 117.711 54.9707 118.041 54.793 118.244C54.1328 119.005 53.4727 119.793 52.8633 120.58C52.7871 120.707 52.6348 120.757 52.4824 120.757ZM220.822 120.199C220.645 120.199 220.467 120.097 220.391 119.945C219.883 119.082 219.375 118.193 218.842 117.33C218.689 117.101 218.766 116.771 219.02 116.619C219.248 116.466 219.578 116.543 219.73 116.797C220.264 117.66 220.797 118.548 221.305 119.437C221.432 119.691 221.355 119.996 221.127 120.123C221 120.173 220.898 120.199 220.822 120.199ZM138.734 117.38C138.633 117.38 138.531 117.355 138.43 117.279C138.201 117.101 138.15 116.797 138.328 116.568C138.937 115.755 139.521 114.918 140.105 114.105C140.258 113.877 140.588 113.826 140.816 113.978C141.045 114.13 141.096 114.461 140.943 114.689C140.385 115.527 139.775 116.365 139.141 117.177C139.039 117.304 138.887 117.38 138.734 117.38ZM56.4687 116.136C56.3418 116.136 56.2148 116.086 56.1133 116.009C55.9102 115.832 55.8848 115.502 56.0879 115.298C56.7734 114.562 57.4844 113.8 58.1953 113.064C58.3984 112.861 58.7031 112.861 58.9062 113.064C59.1094 113.267 59.1094 113.572 58.9062 113.775C58.1953 114.511 57.4844 115.248 56.8242 115.984C56.748 116.086 56.6211 116.136 56.4687 116.136ZM217.623 115.019C217.471 115.019 217.293 114.943 217.191 114.791C216.633 113.953 216.049 113.115 215.465 112.302C215.312 112.074 215.363 111.769 215.592 111.591C215.82 111.439 216.125 111.49 216.303 111.718C216.887 112.531 217.471 113.394 218.055 114.232C218.207 114.461 218.156 114.791 217.902 114.943C217.826 114.994 217.725 115.019 217.623 115.019ZM142.188 112.353C142.086 112.353 142.01 112.328 141.908 112.277C141.68 112.125 141.604 111.82 141.756 111.566C142.289 110.703 142.822 109.839 143.305 108.976C143.432 108.722 143.762 108.646 143.99 108.773C144.244 108.9 144.32 109.23 144.193 109.459C143.711 110.347 143.178 111.236 142.619 112.099C142.518 112.277 142.34 112.353 142.188 112.353ZM60.709 111.769C60.582 111.769 60.4551 111.718 60.3535 111.617C60.1504 111.414 60.1504 111.084 60.3535 110.906C61.0645 110.195 61.8262 109.484 62.5625 108.798C62.7656 108.595 63.0957 108.621 63.2734 108.824C63.4766 109.027 63.4512 109.357 63.248 109.535C62.5117 110.22 61.7754 110.931 61.0391 111.617C60.9629 111.718 60.8359 111.769 60.709 111.769ZM214.068 110.068C213.916 110.068 213.764 109.992 213.662 109.865C213.053 109.078 212.418 108.265 211.783 107.504C211.605 107.275 211.631 106.97 211.859 106.793C212.062 106.615 212.393 106.64 212.57 106.869C213.23 107.656 213.865 108.443 214.475 109.255C214.652 109.484 214.602 109.789 214.373 109.966C214.297 110.043 214.195 110.068 214.068 110.068ZM65.1777 107.63C65.0254 107.63 64.8984 107.58 64.7969 107.453C64.6191 107.25 64.6191 106.92 64.8477 106.742C65.6094 106.082 66.3965 105.396 67.1582 104.736C67.3613 104.558 67.6914 104.584 67.8691 104.787C68.0469 104.99 68.0215 105.32 67.8184 105.498C67.0566 106.158 66.2695 106.818 65.5078 107.478C65.4316 107.58 65.3047 107.63 65.1777 107.63ZM145.133 107.047C145.057 107.047 144.98 107.021 144.904 106.996C144.65 106.869 144.549 106.564 144.676 106.31C145.133 105.396 145.539 104.482 145.945 103.568C146.047 103.314 146.352 103.187 146.605 103.289C146.859 103.39 146.986 103.695 146.885 103.949C146.479 104.888 146.047 105.828 145.615 106.742C145.514 106.92 145.336 107.047 145.133 107.047ZM210.184 105.371C210.031 105.371 209.904 105.32 209.803 105.193C209.143 104.431 208.432 103.695 207.746 102.959C207.543 102.755 207.568 102.425 207.771 102.248C207.975 102.045 208.305 102.07 208.482 102.273C209.193 103.009 209.879 103.771 210.564 104.533C210.742 104.736 210.742 105.066 210.514 105.244C210.437 105.345 210.311 105.371 210.184 105.371ZM69.8496 103.695C69.6973 103.695 69.5449 103.619 69.4434 103.517C69.2656 103.289 69.291 102.984 69.5195 102.806C70.3066 102.172 71.1191 101.537 71.9316 100.927C72.1602 100.75 72.4648 100.8 72.6426 101.029C72.8203 101.257 72.7695 101.562 72.541 101.74C71.7285 102.349 70.9414 102.984 70.1543 103.619C70.0781 103.644 69.9512 103.695 69.8496 103.695ZM147.545 101.435C147.494 101.435 147.418 101.435 147.367 101.41C147.113 101.308 146.986 101.004 147.088 100.75C147.443 99.8102 147.799 98.8453 148.129 97.9059C148.23 97.652 148.51 97.4996 148.764 97.6012C149.018 97.7028 149.17 97.9821 149.068 98.236C148.738 99.2008 148.383 100.166 148.027 101.105C147.951 101.308 147.748 101.435 147.545 101.435ZM205.969 100.978C205.842 100.978 205.715 100.927 205.613 100.826C204.902 100.14 204.141 99.4293 203.404 98.7692C203.201 98.5914 203.176 98.2614 203.354 98.0582C203.531 97.8551 203.861 97.8297 204.064 98.0074C204.826 98.693 205.588 99.4039 206.299 100.089C206.502 100.293 206.502 100.597 206.299 100.8C206.223 100.927 206.096 100.978 205.969 100.978ZM74.6738 99.9625C74.5215 99.9625 74.3691 99.8864 74.2676 99.7594C74.0898 99.5309 74.1406 99.2262 74.3691 99.0485C75.1816 98.4391 76.0195 97.8551 76.8574 97.2711C77.0859 97.1188 77.416 97.1696 77.5684 97.3981C77.7207 97.6266 77.6699 97.9567 77.4414 98.109C76.6035 98.693 75.791 99.277 74.9785 99.8864C74.9023 99.9371 74.7754 99.9625 74.6738 99.9625ZM201.449 96.9157C201.322 96.9157 201.221 96.8649 201.119 96.7887C200.357 96.1539 199.545 95.5192 198.758 94.8844C198.529 94.7067 198.504 94.402 198.656 94.1735C198.834 93.9449 199.139 93.9196 199.367 94.0719C200.18 94.6813 200.967 95.3414 201.754 96.0016C201.957 96.1793 202.008 96.5094 201.83 96.7125C201.729 96.8395 201.576 96.9157 201.449 96.9157ZM79.6758 96.484C79.5234 96.484 79.3457 96.4078 79.2441 96.2555C79.0918 96.027 79.1426 95.6969 79.3965 95.5446C80.2344 94.986 81.0977 94.4274 81.9609 93.8688C82.1894 93.7164 82.5195 93.7926 82.6719 94.0211C82.8242 94.2496 82.748 94.5797 82.5195 94.7321C81.6562 95.2653 80.8184 95.8239 79.9805 96.3824C79.8789 96.4586 79.7773 96.484 79.6758 96.484ZM149.551 95.6969C149.5 95.6969 149.449 95.6969 149.398 95.6715C149.119 95.5953 148.992 95.316 149.068 95.0367C149.373 94.0719 149.652 93.1071 149.932 92.1422C150.008 91.8629 150.287 91.7106 150.566 91.7867C150.846 91.8629 150.998 92.1422 150.922 92.4215C150.643 93.4117 150.363 94.3766 150.059 95.3668C149.957 95.5446 149.779 95.6969 149.551 95.6969ZM84.8301 93.2086C84.6523 93.2086 84.5 93.1324 84.3984 92.9547C84.2461 92.7262 84.3223 92.3961 84.5762 92.2692C85.4395 91.736 86.3281 91.2281 87.2168 90.7203C87.4707 90.568 87.7754 90.6696 87.9023 90.8981C88.0547 91.152 87.9531 91.4567 87.7246 91.5836C86.8613 92.0914 85.9727 92.5992 85.1094 93.1324C85.0078 93.1832 84.9063 93.2086 84.8301 93.2086ZM196.625 93.1832C196.523 93.1832 196.422 93.1578 196.32 93.0817C195.508 92.4977 194.67 91.9137 193.832 91.3551C193.604 91.2028 193.527 90.8727 193.68 90.6442C193.832 90.4156 194.137 90.3395 194.391 90.4918C195.229 91.0504 196.092 91.6344 196.904 92.2438C197.133 92.3961 197.184 92.7262 197.031 92.9547C196.93 93.1071 196.777 93.1832 196.625 93.1832ZM90.1113 90.1617C89.9336 90.1617 89.7559 90.0602 89.6543 89.9078C89.5273 89.6539 89.6035 89.3492 89.8574 89.2223C90.7461 88.7399 91.6602 88.2575 92.5488 87.775C92.8027 87.6481 93.1074 87.7496 93.2344 88.0035C93.3613 88.2574 93.2598 88.5621 93.0059 88.6891C92.1172 89.1461 91.2031 89.6285 90.3145 90.111C90.2637 90.1363 90.1875 90.1617 90.1113 90.1617ZM191.547 89.8063C191.445 89.8063 191.369 89.7809 191.293 89.7301C190.43 89.1969 189.566 88.6891 188.678 88.1813C188.424 88.0543 188.348 87.7242 188.475 87.4957C188.602 87.2418 188.932 87.1656 189.16 87.2926C190.049 87.8004 190.938 88.3082 191.801 88.8414C192.029 88.9938 192.105 89.2985 191.979 89.5524C191.902 89.7301 191.725 89.8063 191.547 89.8063ZM151.176 89.8063C151.125 89.8063 151.1 89.8063 151.049 89.7809C150.77 89.7047 150.617 89.4508 150.668 89.1715C150.896 88.1813 151.125 87.191 151.328 86.2262C151.379 85.9469 151.658 85.7692 151.938 85.8199C152.217 85.8707 152.395 86.15 152.344 86.4293C152.141 87.4196 151.912 88.4352 151.684 89.4254C151.607 89.6539 151.404 89.8063 151.176 89.8063ZM95.5195 87.3688C95.3418 87.3688 95.1387 87.2672 95.0625 87.0895C94.9355 86.8356 95.0371 86.5309 95.291 86.4039C96.2051 85.9469 97.1445 85.5153 98.0586 85.0836C98.3125 84.9567 98.6172 85.0836 98.7441 85.3375C98.8711 85.5914 98.7441 85.8961 98.4902 86.0231C97.5762 86.4293 96.6621 86.8863 95.7481 87.318C95.6719 87.3434 95.5957 87.3688 95.5195 87.3688ZM186.266 86.8102C186.189 86.8102 186.113 86.7848 186.037 86.7594C185.148 86.3024 184.234 85.8453 183.32 85.4137C183.066 85.2867 182.965 84.9821 183.092 84.7282C183.219 84.4742 183.523 84.3727 183.777 84.4996C184.691 84.9313 185.605 85.4137 186.52 85.8707C186.773 85.9977 186.875 86.3024 186.723 86.5563C186.621 86.7086 186.443 86.8102 186.266 86.8102ZM101.055 84.8297C100.852 84.8297 100.674 84.7028 100.598 84.525C100.496 84.2711 100.598 83.9664 100.852 83.8649C101.791 83.4586 102.73 83.0778 103.67 82.6969C103.924 82.5953 104.229 82.7223 104.33 82.9762C104.432 83.2301 104.305 83.5348 104.051 83.6363C103.111 84.0172 102.172 84.3981 101.258 84.8043C101.182 84.8043 101.131 84.8297 101.055 84.8297ZM180.756 84.1696C180.68 84.1696 180.629 84.1442 180.553 84.1188C179.639 83.7125 178.699 83.3317 177.76 82.9508C177.506 82.8492 177.379 82.5446 177.48 82.2906C177.582 82.0367 177.887 81.9098 178.141 82.0114C179.08 82.3922 180.045 82.7985 180.959 83.2047C181.213 83.3063 181.34 83.611 181.213 83.8649C181.137 84.068 180.959 84.1696 180.756 84.1696ZM152.369 83.8395C152.344 83.8395 152.318 83.8395 152.293 83.8395C152.014 83.7887 151.836 83.5348 151.887 83.2555C152.064 82.2653 152.191 81.2496 152.318 80.2594C152.344 79.9801 152.598 79.777 152.877 79.8278C153.156 79.8531 153.359 80.1071 153.309 80.3864C153.182 81.3766 153.029 82.4176 152.852 83.4078C152.826 83.6617 152.623 83.8395 152.369 83.8395ZM106.717 82.57C106.514 82.57 106.311 82.443 106.234 82.2399C106.133 81.986 106.26 81.6813 106.539 81.5797C107.504 81.2242 108.469 80.8688 109.408 80.5641C109.662 80.4625 109.967 80.6149 110.043 80.8688C110.145 81.1227 109.992 81.4274 109.738 81.5035C108.799 81.8336 107.834 82.1637 106.895 82.5192C106.818 82.5446 106.768 82.57 106.717 82.57ZM175.119 81.9098C175.068 81.9098 174.992 81.9098 174.941 81.8844C174.002 81.5289 173.037 81.1989 172.072 80.8942C171.818 80.818 171.666 80.5133 171.742 80.2594C171.818 80.0055 172.123 79.8531 172.377 79.9293C173.342 80.2594 174.307 80.5895 175.271 80.9449C175.525 81.0465 175.678 81.3258 175.576 81.6051C175.525 81.7828 175.322 81.9098 175.119 81.9098ZM112.455 80.5895C112.227 80.5895 112.049 80.4625 111.973 80.234C111.896 79.9547 112.049 79.6754 112.303 79.5992C113.268 79.2946 114.258 78.9899 115.223 78.736C115.502 78.6598 115.781 78.8121 115.857 79.0914C115.934 79.3707 115.781 79.65 115.502 79.7262C114.537 80.0055 113.572 80.2848 112.607 80.5895C112.557 80.5895 112.506 80.5895 112.455 80.5895ZM169.355 79.9801C169.305 79.9801 169.254 79.9801 169.203 79.9547C168.238 79.6754 167.273 79.3961 166.283 79.1168C166.004 79.0406 165.852 78.7614 165.928 78.4821C166.004 78.2028 166.283 78.0504 166.562 78.1266C167.553 78.4059 168.543 78.6852 169.508 78.9645C169.787 79.0406 169.939 79.3199 169.838 79.5992C169.762 79.8278 169.559 79.9801 169.355 79.9801ZM118.295 78.9391C118.066 78.9391 117.863 78.7867 117.812 78.5582C117.736 78.2789 117.914 77.9996 118.168 77.9489C119.158 77.6949 120.148 77.4664 121.139 77.2379C121.418 77.1871 121.672 77.3395 121.748 77.6188C121.799 77.8981 121.646 78.152 121.367 78.2281C120.402 78.4567 119.412 78.6852 118.422 78.9391C118.396 78.9137 118.346 78.9391 118.295 78.9391ZM163.465 78.3805C163.414 78.3805 163.389 78.3805 163.338 78.3551C162.373 78.1266 161.383 77.8981 160.393 77.6696C160.113 77.6188 159.936 77.3395 160.012 77.0602C160.062 76.7809 160.342 76.6031 160.621 76.6793C161.611 76.8824 162.627 77.111 163.592 77.3649C163.871 77.441 164.023 77.6949 163.973 77.9742C163.896 78.2281 163.693 78.3805 163.465 78.3805ZM153.156 77.7965C153.131 77.7965 153.131 77.7965 153.105 77.7965C152.826 77.7711 152.623 77.5172 152.648 77.2379C152.75 76.2223 152.801 75.2067 152.852 74.2164C152.877 73.9371 153.105 73.734 153.385 73.734C153.664 73.7594 153.893 73.9879 153.867 74.2672C153.816 75.2828 153.74 76.2985 153.664 77.3141C153.639 77.5934 153.41 77.7965 153.156 77.7965ZM124.236 77.5934C124.008 77.5934 123.779 77.4156 123.729 77.1871C123.678 76.9078 123.855 76.6539 124.135 76.6032C125.125 76.4 126.141 76.2223 127.131 76.0699C127.41 76.0192 127.664 76.2223 127.715 76.5016C127.766 76.7809 127.562 77.0348 127.283 77.0856C126.293 77.2379 125.303 77.4157 124.313 77.6188C124.287 77.5934 124.262 77.5934 124.236 77.5934ZM157.498 77.111C157.473 77.111 157.447 77.111 157.396 77.111C156.406 76.9332 155.391 76.7809 154.4 76.6285C154.121 76.5778 153.918 76.3239 153.969 76.0446C154.02 75.7653 154.273 75.5621 154.553 75.6129C155.568 75.7653 156.584 75.9176 157.574 76.0953C157.854 76.1461 158.031 76.4 157.98 76.6793C157.955 76.9332 157.752 77.111 157.498 77.111ZM130.229 76.6032C129.975 76.6032 129.771 76.4254 129.721 76.1715C129.695 75.8922 129.873 75.6383 130.152 75.6129C131.168 75.486 132.184 75.359 133.174 75.2574C133.453 75.2321 133.707 75.4352 133.732 75.7145C133.758 75.9938 133.555 76.2477 133.275 76.2731C132.285 76.3746 131.27 76.5016 130.279 76.6285C130.279 76.6031 130.254 76.6032 130.229 76.6032ZM151.48 76.2731C151.455 76.2731 151.455 76.2731 151.43 76.2731C150.439 76.1715 149.424 76.0699 148.408 76.0192C148.129 75.9938 147.926 75.7653 147.926 75.486C147.951 75.2067 148.18 75.0035 148.459 75.0035C149.475 75.0797 150.516 75.1559 151.506 75.2574C151.785 75.2828 151.988 75.5367 151.963 75.816C151.963 76.0699 151.734 76.2731 151.48 76.2731ZM136.271 76.0192C136.018 76.0192 135.789 75.816 135.764 75.5367C135.738 75.2574 135.967 75.0035 136.246 75.0035C137.262 74.9274 138.277 74.8766 139.293 74.8512C139.572 74.8512 139.801 75.0543 139.826 75.3336C139.826 75.6129 139.623 75.8414 139.344 75.8668C138.354 75.8922 137.338 75.943 136.322 76.0192C136.297 76.0192 136.271 76.0192 136.271 76.0192ZM145.412 75.8414C145.387 75.8414 145.387 75.8414 145.412 75.8414C144.422 75.816 143.432 75.7906 142.441 75.7906H142.365C142.086 75.7906 141.857 75.5621 141.857 75.2828C141.857 75.0035 142.086 74.775 142.365 74.775H142.441C143.432 74.775 144.422 74.8004 145.412 74.8258C145.691 74.8258 145.92 75.0797 145.895 75.359C145.895 75.6383 145.666 75.8414 145.412 75.8414ZM153.436 71.7281C153.156 71.7281 152.928 71.4996 152.928 71.2203V70.8649C152.928 69.9762 152.902 69.0875 152.877 68.1989C152.877 67.9196 153.08 67.691 153.359 67.6656C153.639 67.6656 153.867 67.8688 153.893 68.1481C153.918 69.0367 153.943 69.9508 153.943 70.8395V71.1949C153.943 71.4996 153.715 71.7281 153.436 71.7281ZM153.182 65.6344C152.928 65.6344 152.699 65.4313 152.674 65.1774C152.572 64.1617 152.471 63.1461 152.344 62.1813C152.293 61.902 152.496 61.6481 152.775 61.5973C153.055 61.5465 153.309 61.7496 153.359 62.0289C153.512 63.0192 153.613 64.0602 153.715 65.0758C153.74 65.3551 153.537 65.609 153.258 65.6344C153.207 65.6344 153.207 65.6344 153.182 65.6344ZM152.344 59.6168C152.115 59.6168 151.887 59.4391 151.836 59.2106C151.633 58.2203 151.404 57.2301 151.176 56.2653C151.1 55.986 151.277 55.7067 151.531 55.6559C151.811 55.5797 152.09 55.7575 152.141 56.0114C152.395 56.9762 152.623 57.9918 152.826 59.0074C152.877 59.2867 152.699 59.5407 152.42 59.5914C152.395 59.5914 152.369 59.6168 152.344 59.6168ZM150.795 53.7008C150.592 53.7008 150.389 53.5739 150.312 53.3453C150.008 52.3805 149.652 51.441 149.271 50.527C149.17 50.2731 149.297 49.9684 149.551 49.8668C149.805 49.7653 150.109 49.8922 150.211 50.1461C150.592 51.0856 150.947 52.0504 151.277 53.0407C151.354 53.2946 151.227 53.5992 150.947 53.6754C150.896 53.7008 150.846 53.7008 150.795 53.7008ZM148.51 48.0895C148.332 48.0895 148.154 47.9879 148.053 47.8102C147.596 46.9215 147.113 46.0328 146.605 45.1696C146.453 44.941 146.529 44.611 146.783 44.484C147.012 44.3317 147.342 44.4078 147.469 44.6617C148.002 45.525 148.484 46.4391 148.941 47.3785C149.068 47.6325 148.967 47.9371 148.713 48.0641C148.662 48.0641 148.586 48.0895 148.51 48.0895ZM145.387 42.859C145.234 42.859 145.082 42.7828 144.98 42.6559C144.396 41.8434 143.762 41.0563 143.127 40.2946C142.949 40.0914 142.975 39.7614 143.178 39.5836C143.381 39.4059 143.711 39.4313 143.889 39.6344C144.549 40.3961 145.184 41.234 145.793 42.0719C145.945 42.3004 145.895 42.6051 145.666 42.7828C145.59 42.8336 145.488 42.859 145.387 42.859ZM141.426 38.2379C141.299 38.2379 141.172 38.1871 141.07 38.0856C140.359 37.4 139.598 36.7145 138.836 36.0797C138.607 35.902 138.582 35.5719 138.76 35.3688C138.938 35.1403 139.268 35.1149 139.471 35.2926C140.258 35.9528 141.045 36.6383 141.781 37.3493C141.984 37.5524 141.984 37.8571 141.781 38.0602C141.68 38.1871 141.553 38.2379 141.426 38.2379ZM81.25 36.7653C81.0723 36.7653 80.8945 36.6637 80.793 36.486C80.666 36.2321 80.7676 35.9274 81.0215 35.8004C81.0723 35.775 82.0625 35.2672 83.8145 34.5055C84.0684 34.4039 84.3731 34.5055 84.4746 34.7594C84.5762 35.0133 84.4746 35.318 84.2207 35.4196C82.4941 36.1813 81.4785 36.6891 81.4785 36.6891C81.4023 36.7399 81.3262 36.7653 81.25 36.7653ZM136.703 34.4039C136.602 34.4039 136.5 34.3785 136.424 34.3278C135.814 33.9215 135.205 33.5407 134.57 33.1598C134.342 33.0328 134.088 32.8805 133.859 32.7535C133.605 32.6266 133.529 32.2965 133.656 32.068C133.783 31.8141 134.113 31.7379 134.342 31.8649C134.596 31.9918 134.824 32.1442 135.078 32.2711C135.713 32.652 136.373 33.0582 136.982 33.4645C137.211 33.6168 137.287 33.9469 137.109 34.1754C137.033 34.3278 136.855 34.4039 136.703 34.4039ZM86.8359 34.3278C86.6328 34.3278 86.4297 34.2008 86.3535 33.9977C86.252 33.7438 86.3789 33.4391 86.6328 33.3375C87.5723 32.9567 88.5371 32.6012 89.502 32.2711C89.7559 32.1696 90.0606 32.3219 90.1621 32.5758C90.2637 32.8297 90.1113 33.1344 89.8574 33.236C88.8926 33.566 87.9531 33.9469 87.0137 34.3024C86.9629 34.3024 86.9121 34.3278 86.8359 34.3278ZM92.5996 32.2711C92.3965 32.2711 92.1934 32.1442 92.1172 31.9157C92.041 31.6364 92.168 31.3571 92.4473 31.2809C93.4121 30.9762 94.4023 30.6715 95.3672 30.3922C95.6465 30.316 95.9258 30.4684 96.002 30.7477C96.0781 31.027 95.9258 31.3063 95.6465 31.3825C94.6816 31.6617 93.7168 31.9664 92.7519 32.2711C92.7012 32.2711 92.6504 32.2711 92.5996 32.2711ZM131.371 31.4586C131.295 31.4586 131.244 31.4332 131.168 31.4078C130.254 31.027 129.314 30.6461 128.375 30.3414C128.121 30.2653 127.969 29.9606 128.045 29.7067C128.121 29.4528 128.426 29.3004 128.68 29.3766C129.67 29.7067 130.635 30.0621 131.574 30.4684C131.828 30.57 131.955 30.8746 131.828 31.1285C131.752 31.3317 131.574 31.4586 131.371 31.4586ZM98.4395 30.5953C98.2109 30.5953 98.0078 30.443 97.957 30.2145C97.8809 29.9352 98.0586 29.6559 98.3379 29.6051C99.3281 29.3512 100.344 29.1227 101.334 28.9196C101.613 28.8688 101.867 29.0465 101.943 29.3004C101.994 29.5797 101.816 29.8336 101.562 29.9098C100.598 30.1129 99.6074 30.3414 98.6172 30.5953C98.541 30.57 98.4902 30.5953 98.4395 30.5953ZM125.607 29.5289C125.557 29.5289 125.531 29.5289 125.48 29.5035C124.516 29.275 123.525 29.0719 122.535 28.9196C122.256 28.8688 122.078 28.6149 122.104 28.3356C122.154 28.0563 122.408 27.8785 122.688 27.9039C123.703 28.0817 124.744 28.2848 125.709 28.5133C125.988 28.5895 126.141 28.8434 126.09 29.1227C126.039 29.3766 125.836 29.5289 125.607 29.5289ZM104.406 29.3258C104.152 29.3258 103.949 29.1481 103.898 28.8942C103.848 28.6149 104.025 28.361 104.305 28.3102C105.32 28.1325 106.336 27.9801 107.352 27.8532C107.631 27.8278 107.885 28.0055 107.91 28.2848C107.936 28.5641 107.758 28.818 107.479 28.8434C106.488 28.9703 105.498 29.1227 104.482 29.3004C104.482 29.3258 104.432 29.3258 104.406 29.3258ZM119.59 28.5641C119.564 28.5641 119.564 28.5641 119.539 28.5641C118.549 28.4879 117.559 28.4118 116.518 28.3864C116.238 28.3864 116.01 28.1325 116.035 27.8532C116.035 27.5739 116.264 27.3453 116.568 27.3707C117.609 27.3961 118.65 27.4723 119.641 27.5485C119.92 27.5739 120.123 27.8278 120.098 28.1071C120.072 28.361 119.844 28.5641 119.59 28.5641ZM110.449 28.5641C110.195 28.5641 109.967 28.361 109.941 28.1071C109.916 27.8278 110.119 27.5739 110.398 27.5485C111.439 27.4723 112.455 27.3961 113.471 27.3707C113.471 27.3707 113.471 27.3707 113.496 27.3707C113.775 27.3707 114.004 27.5992 114.004 27.8532C114.004 28.1325 113.801 28.361 113.521 28.3864C112.531 28.4118 111.516 28.4625 110.5 28.5641C110.5 28.5641 110.475 28.5641 110.449 28.5641Z" fill="#EAEAFF"/>
<path d="M67.2852 39.8122L73.8867 49.4606L52.3047 43.57L67.2852 39.8122Z" fill="#EAE9FF"/>
<path d="M24.6289 36.0036L67.2852 39.8122L54.5898 51.4919L24.6289 36.0036Z" fill="#F4F3FD"/>
<path d="M71.3477 32.4492L79.9805 24.832L24.6289 36.0038L71.3477 32.4492Z" fill="#F4F3FD"/>
<path d="M40.8535 195.584C40.8535 195.584 37.2227 207.34 36.0801 216.023C34.9629 224.707 34.5059 234.66 34.5059 234.66H68.3769L74.8262 203.43L40.8535 195.584Z" fill="#F9D2DD"/>
<path d="M40.8535 195.584C40.8535 195.584 37.2227 207.34 36.0801 216.023C34.9629 224.707 34.5059 234.66 34.5059 234.66H68.3769L74.8262 203.43L40.8535 195.584Z" fill="#DA5742"/>
<path d="M40.8535 195.584C40.8535 195.584 39.5586 199.773 38.2637 205.004L71.9824 217.141L74.8008 203.43L40.8535 195.584Z" fill="#C43D28"/>
<path d="M68.3769 234.787L71.1699 209.574L38.4668 201.729C38.4668 201.729 39.0254 199.291 40.1426 195.356C43.5195 183.524 52.1777 158.26 66.7773 146.936C92.6758 126.877 117.889 127.563 138.125 130.432C163.262 133.986 180.832 157.6 185.859 164.709C192.562 174.205 200.078 189.668 200.078 189.668L165.623 204.242L170.676 234.762H68.3769V234.787Z" fill="#3D5CFF"/>
<path d="M175.475 128.553L157.422 125.861C154.223 125.379 152.014 122.408 152.496 119.209L158.92 76.2225C159.402 73.0233 162.373 70.8143 165.572 71.2968L183.625 73.9882C186.824 74.4706 189.033 77.4413 188.551 80.6405L182.127 123.627C181.67 126.826 178.674 129.035 175.475 128.553Z" fill="#B7B8D1"/>
<path d="M248.752 234.229H11.248V235.066H248.752V234.229Z" fill="#1F1F39"/>
<path d="M175.475 128.553L157.422 125.861C154.223 125.379 152.014 122.408 152.496 119.209L158.92 76.2225C159.402 73.0233 162.373 70.8143 165.572 71.2968L183.625 73.9882C186.824 74.4706 189.033 77.4413 188.551 80.6405L182.127 123.627C181.67 126.826 178.674 129.035 175.475 128.553Z" fill="#1F1F39"/>
<path d="M192.359 192.969L165.648 204.268C165.648 204.268 169.914 222.244 188.678 231.766C207.441 241.287 230.064 229.48 231.766 212.951C233.187 199.088 228.973 167.857 220.01 146.859C211.047 125.861 197.615 102.883 187.789 93.082C177.963 83.2812 163.973 84.3984 160.621 84.957C157.269 85.5156 154.451 88.0292 156.432 90.289C158.387 92.5234 169.863 93.6405 169.863 93.6405C169.863 93.6405 161.078 92.4472 155.67 95.4433C151.836 97.5761 152.064 100.141 152.623 101.537C153.182 102.934 155.416 103.568 155.416 103.568C155.416 103.568 153.105 105.117 153.639 107.631C154.4 111.185 157.828 111.008 157.828 111.008C157.828 111.008 156.99 112.125 157.828 114.08C158.666 116.035 161.459 116.873 164.836 117.432C168.187 117.99 171.564 116.873 174.078 120.225C176.592 123.576 192.359 192.969 192.359 192.969Z" fill="#DA5742"/>
<path d="M153.918 97.0177C153.816 97.0177 153.715 96.9669 153.639 96.8907C153.486 96.7384 153.512 96.4845 153.664 96.3575C154.172 95.9005 154.756 95.4942 155.467 95.088C157.752 93.8184 160.875 93.1329 164.76 93.0313C167.629 92.9552 169.813 93.2345 169.889 93.2599C170.092 93.2852 170.244 93.4884 170.219 93.6915C170.193 93.8946 169.99 94.047 169.787 94.0216C169.711 94.0216 161.053 92.879 155.822 95.7735C155.162 96.129 154.604 96.5352 154.172 96.9415C154.096 96.9669 153.994 97.0177 153.918 97.0177Z" fill="#1F1F39"/>
<path d="M165.775 205.105C165.598 205.105 165.42 204.978 165.369 204.801L156.965 172.021C156.914 171.793 157.041 171.564 157.269 171.514C157.498 171.463 157.726 171.59 157.777 171.818L166.182 204.598C166.232 204.826 166.105 205.055 165.877 205.105C165.851 205.105 165.801 205.105 165.775 205.105Z" fill="#1F1F39"/>
<path d="M71.3223 209.854C71.2969 209.854 71.2715 209.854 71.2461 209.854C71.0176 209.803 70.8653 209.6 70.916 209.371L76.5274 177.43C76.5781 177.201 76.7813 177.049 77.0098 177.1C77.2383 177.151 77.3906 177.354 77.3399 177.582L71.7285 209.524C71.7031 209.727 71.5254 209.854 71.3223 209.854Z" fill="#1F1F39"/>
<path d="M248.752 234.229H11.248V235.066H248.752V234.229Z" fill="#1F1F39"/>
<path d="M154.654 103.72C154.527 103.72 154.375 103.644 154.324 103.517C154.223 103.34 154.299 103.111 154.477 103.01C154.654 102.908 159.149 100.623 164.227 100.115C169.33 99.6072 170.93 100.115 170.981 100.14C171.184 100.217 171.285 100.42 171.209 100.623C171.133 100.826 170.93 100.928 170.727 100.851C170.727 100.851 169.152 100.369 164.277 100.877C159.326 101.359 154.832 103.67 154.781 103.67C154.781 103.72 154.705 103.72 154.654 103.72Z" fill="#1F1F39"/>
<path d="M156.178 111.592C156.051 111.592 155.899 111.515 155.848 111.388C155.746 111.211 155.822 110.982 156 110.881C156.178 110.779 160.672 108.494 165.75 107.986C170.854 107.478 172.453 107.986 172.504 108.011C172.707 108.088 172.809 108.291 172.732 108.494C172.656 108.697 172.453 108.799 172.25 108.722C172.25 108.722 170.676 108.24 165.801 108.748C160.85 109.23 156.356 111.541 156.305 111.541C156.305 111.592 156.229 111.592 156.178 111.592Z" fill="#1F1F39"/>
<path d="M155.645 95.7986C155.518 95.7986 155.391 95.7225 155.315 95.5955C155.213 95.4178 155.289 95.1893 155.467 95.0877C157.803 93.7928 160.748 93.2596 163.363 93.0818C160.316 92.4979 157.117 91.66 156.127 90.5174C156 90.3651 156 90.1111 156.152 89.9842C156.305 89.8572 156.559 89.8572 156.686 90.0096C158.082 91.6092 165.242 92.7264 168.899 93.1326C169.457 93.1834 169.813 93.2342 169.889 93.2342L169.813 93.9959C169.736 93.9959 169.483 93.9705 169.051 93.9197C166.842 93.7166 160.164 93.3611 155.848 95.7479C155.772 95.7733 155.695 95.7986 155.645 95.7986Z" fill="#1F1F39"/>
<path d="M193.146 196.6L192.334 192.969L165.623 204.268C165.623 204.268 166.842 209.447 170.879 215.719L193.146 196.6Z" fill="#C43D28"/>
<path d="M195.127 205.664C194.924 205.664 194.772 205.537 194.721 205.334L191.928 193.146C191.877 192.918 192.029 192.689 192.232 192.639C192.461 192.588 192.69 192.74 192.74 192.943L195.533 205.131C195.584 205.359 195.432 205.588 195.229 205.639C195.178 205.639 195.152 205.664 195.127 205.664Z" fill="#1F1F39"/>
<path d="M76.375 180.629L61.1914 207.188L71.1699 209.574L70.5098 215.617L76.375 180.629Z" fill="#224BF4"/>
<path d="M157.371 173.697L165.826 205.385L165.623 204.267L174.687 200.434L157.371 173.697Z" fill="#224BF4"/>
<path d="M40.7388 193.193L40.5273 194.186L72.7874 201.053L72.9989 200.06L40.7388 193.193Z" fill="#EAEAFF"/>
<path d="M190.262 184.157L163.024 195.096L163.402 196.038L190.64 185.099L190.262 184.157Z" fill="#EAEAFF"/>
<path d="M55.0977 196.828L54.1074 196.6C54.1582 196.346 59.5918 171.945 70.2051 158.311C80.8184 144.65 99.1758 136.906 99.3535 136.83L99.7344 137.77C99.5566 137.846 81.4531 145.488 70.9922 158.945C60.5059 172.402 55.1484 196.6 55.0977 196.828Z" fill="#EAEAFF"/>
<path d="M51.543 195.508L51.0352 195.406C51.0352 195.406 51.2891 194.264 51.7461 192.41L52.2285 192.537C51.7715 194.391 51.543 195.508 51.543 195.508ZM53.041 189.592L52.5586 189.465C52.8379 188.5 53.1172 187.51 53.3965 186.52L53.8789 186.672C53.5742 187.637 53.2949 188.627 53.041 189.592ZM54.793 183.752L54.3105 183.6C54.6152 182.609 54.9453 181.645 55.2754 180.705L55.7578 180.883C55.4277 181.822 55.0977 182.787 54.793 183.752ZM56.7734 178.014L56.291 177.836C56.6465 176.871 57.0273 175.906 57.3828 174.992L57.8652 175.17C57.5098 176.084 57.1289 177.049 56.7734 178.014ZM59.0332 172.352L58.5762 172.149C58.9824 171.209 59.4141 170.27 59.8203 169.356L60.2773 169.584C59.8711 170.473 59.4395 171.412 59.0332 172.352ZM61.623 166.867L61.166 166.639C61.6484 165.699 62.1309 164.811 62.6133 163.947L63.0449 164.201C62.5879 165.039 62.1055 165.928 61.623 166.867ZM64.6445 161.586L64.2129 161.307C64.7715 160.418 65.3555 159.555 65.9141 158.768L66.3203 159.072C65.7617 159.859 65.1777 160.697 64.6445 161.586ZM68.1738 156.66L67.7676 156.33C68.4023 155.543 69.0625 154.756 69.7481 153.994L70.1289 154.324C69.4688 155.111 68.8086 155.873 68.1738 156.66ZM72.1855 152.115L71.8301 151.76C72.541 151.024 73.252 150.287 73.9883 149.602L74.3437 149.957C73.6074 150.668 72.8965 151.379 72.1855 152.115ZM76.5781 147.9L76.248 147.52C77.0098 146.834 77.7969 146.174 78.584 145.539L78.9141 145.945C78.1016 146.555 77.3145 147.215 76.5781 147.9ZM81.2754 144.066L80.9707 143.66C81.7832 143.051 82.6211 142.467 83.459 141.883L83.7383 142.315C82.9258 142.873 82.0879 143.457 81.2754 144.066ZM86.3027 140.639L86.0234 140.207C86.8867 139.674 87.7754 139.141 88.6641 138.658L88.918 139.09C88.0293 139.572 87.166 140.106 86.3027 140.639ZM91.584 137.668L91.3555 137.211C92.2949 136.754 93.209 136.297 94.1231 135.916L94.3262 136.373C93.4375 136.779 92.4981 137.211 91.584 137.668ZM97.1445 135.256L96.9668 134.774C97.9062 134.443 98.4141 134.291 98.4395 134.291L98.5664 134.774C98.5918 134.774 98.0586 134.926 97.1445 135.256Z" fill="#EAEAFF"/>
<path d="M187.992 182.66C187.561 181.772 187.078 180.858 186.596 179.943L187.053 179.715C187.535 180.629 188.018 181.543 188.449 182.432L187.992 182.66ZM185.148 177.277C184.666 176.389 184.158 175.5 183.65 174.637L184.082 174.383C184.59 175.272 185.098 176.16 185.605 177.049L185.148 177.277ZM182.076 172.022C181.543 171.158 181.01 170.27 180.451 169.432L180.883 169.152C181.416 169.99 181.975 170.879 182.508 171.742L182.076 172.022ZM178.801 166.867C178.242 166.029 177.658 165.166 177.074 164.354L177.48 164.049C178.064 164.861 178.648 165.725 179.207 166.563L178.801 166.867ZM175.297 161.891C174.688 161.078 174.078 160.266 173.443 159.479L173.85 159.174C174.459 159.961 175.094 160.774 175.703 161.611L175.297 161.891ZM171.539 157.117C170.879 156.33 170.219 155.543 169.559 154.807L169.939 154.477C170.6 155.213 171.285 156 171.945 156.787L171.539 157.117ZM167.502 152.572C166.791 151.836 166.08 151.1 165.369 150.414L165.725 150.059C166.436 150.744 167.172 151.481 167.883 152.217L167.502 152.572ZM163.135 148.358C162.373 147.672 161.586 147.012 160.799 146.402L161.104 145.996C161.891 146.606 162.678 147.266 163.439 147.951L163.135 148.358ZM158.361 144.574C157.549 143.99 156.686 143.432 155.848 142.873L156.127 142.441C156.99 143 157.854 143.559 158.666 144.143L158.361 144.574ZM153.258 141.324C152.395 140.816 151.48 140.334 150.592 139.877L150.82 139.42C151.734 139.877 152.623 140.359 153.512 140.867L153.258 141.324ZM147.85 138.557C146.936 138.15 145.996 137.744 145.057 137.363L145.234 136.881C146.174 137.262 147.139 137.668 148.053 138.074L147.85 138.557ZM142.213 136.322C141.273 135.992 140.283 135.688 139.318 135.383L139.471 134.9C140.436 135.205 141.426 135.51 142.391 135.84L142.213 136.322ZM136.398 134.57C135.408 134.316 134.418 134.088 133.428 133.885L133.529 133.377C134.52 133.58 135.535 133.809 136.5 134.063L136.398 134.57ZM130.457 133.326C129.441 133.174 128.451 133.022 127.461 132.895L127.512 132.387C128.502 132.514 129.518 132.641 130.533 132.818L130.457 133.326ZM124.414 132.615C123.094 132.539 122.18 132.514 121.723 132.514C121.494 132.514 121.393 132.514 121.393 132.514L121.367 132.006C121.367 132.006 121.494 132.006 121.723 132.006C122.18 132.006 123.119 132.031 124.439 132.108L124.414 132.615Z" fill="#EAEAFF"/>
<path d="M185.402 186.773C185.275 186.494 172.783 159.326 155.086 146.606C137.414 133.91 118.016 134.291 117.838 134.291L117.812 133.275C118.016 133.275 137.719 132.869 155.695 145.768C173.621 158.641 186.215 186.063 186.342 186.342L185.402 186.773Z" fill="#EAEAFF"/>
<path d="M71.3223 209.854C71.2969 209.854 71.2715 209.854 71.2461 209.854C71.0176 209.803 70.8653 209.6 70.916 209.371L76.5274 177.43C76.5781 177.201 76.7813 177.049 77.0098 177.1C77.2383 177.151 77.3906 177.354 77.3399 177.582L71.7285 209.524C71.7031 209.727 71.5254 209.854 71.3223 209.854Z" fill="#1F1F39"/>
<path d="M165.775 205.105C165.598 205.105 165.42 204.978 165.369 204.801L156.965 172.021C156.914 171.793 157.041 171.564 157.269 171.514C157.498 171.463 157.726 171.59 157.777 171.818L166.182 204.598C166.232 204.826 166.105 205.055 165.877 205.105C165.851 205.105 165.801 205.105 165.775 205.105Z" fill="#1F1F39"/>
<path d="M93.2343 135.916C93.5644 140.537 102.451 143.635 113.09 142.873C123.728 142.086 132.057 137.719 131.726 133.098C131.625 131.701 130.762 130.457 129.289 129.416C118.65 128.477 106.92 128.73 94.6815 132.361C93.6659 133.504 93.1581 134.697 93.2343 135.916Z" fill="#224BF4"/>
<path d="M134.52 88.0294L132.006 75.9942C132.006 75.9942 140.689 68.1485 134.52 58.9064C128.35 49.6642 116.873 53.295 116.873 53.295C116.873 53.295 113.496 41.8185 100.064 42.6564C86.6328 43.4942 87.4707 59.1857 87.4707 59.1857C87.4707 59.1857 84.8555 55.3771 79.0664 58.0685C74.8769 60.0235 77.1113 67.0314 77.1113 67.0314C77.1113 67.0314 67.0312 67.8692 64.5176 77.67C61.75 88.4103 68.1484 93.6407 70.9668 95.0372C73.7598 96.4337 76.2988 95.8751 76.2988 95.8751C76.2988 95.8751 70.9668 98.9474 72.9473 104.838C74.9023 110.729 83.3066 110.17 83.3066 110.17L100.242 124.516L134.52 88.0294Z" fill="#FF7F2D"/>
<path d="M127.791 89.9846C127.791 89.9846 130.686 86.8362 134.57 87.5725C138.455 88.3089 139.648 93.1331 137.973 97.9827C136.271 102.832 129.264 104.28 129.264 104.28L127.791 89.9846Z" fill="#F9ACC0"/>
<path d="M96.1289 101.182C96.1289 101.182 95.0117 98.1096 90.5176 98.6681C86.0488 99.2267 84.6269 105.397 87.7246 109.865C90.8222 114.334 98.3633 113.776 98.3633 113.776C98.3633 113.776 100.039 120.504 100.598 129.188C101.156 137.871 101.156 136.475 101.156 136.475C101.156 136.475 105.93 140.664 115.451 138.709C124.973 136.754 124.414 132.26 124.414 132.26C124.414 132.26 124.135 130.863 123.018 127.207C121.9 123.551 121.342 119.641 121.342 119.641C121.342 119.641 133.098 115.172 131.98 101.156C130.863 87.1408 126.09 77.6193 126.09 77.6193H123.018C123.018 77.6193 122.738 81.8088 119.387 82.9514C116.035 84.0939 111.541 80.9963 111.541 80.9963C111.541 80.9963 110.982 86.049 105.93 88.0041C100.877 89.9592 96.6875 89.1213 96.6875 89.1213C96.6875 89.1213 98.668 98.3889 96.1289 101.182Z" fill="#F9D2DD"/>
<path d="M131.422 98.9476C131.219 98.9476 131.066 98.7952 131.066 98.5921C131.066 98.4905 131.066 96.0784 131.803 93.8694C132.539 91.635 134.012 90.1624 134.062 90.0862C134.215 89.9339 134.443 89.9339 134.57 90.0862C134.723 90.2386 134.723 90.4671 134.57 90.594C134.545 90.6194 133.174 92.0159 132.488 94.0979C131.777 96.2054 131.777 98.5667 131.777 98.5921C131.777 98.7952 131.625 98.9476 131.422 98.9476Z" fill="#1F1F39"/>
<path d="M97.5509 110.018C97.3985 110.018 97.2716 109.942 97.1954 109.815C97.17 109.789 95.3926 106.946 93.2598 105.6C91.127 104.254 88.2579 103.848 88.2325 103.848C88.004 103.822 87.8516 103.594 87.877 103.365C87.9024 103.137 88.1309 102.985 88.3594 103.01C88.4864 103.035 91.4063 103.467 93.6915 104.889C95.9766 106.336 97.8048 109.231 97.8809 109.358C98.0079 109.561 97.9317 109.815 97.754 109.942C97.7032 109.992 97.627 110.018 97.5509 110.018Z" fill="#1F1F39"/>
<path d="M103.975 97.8304C103.975 97.0941 104.254 96.4085 104.686 95.7992C105.143 95.2152 105.777 94.7074 106.514 94.4535C106.895 94.3265 107.25 94.2503 107.656 94.2503C108.037 94.2249 108.443 94.2757 108.799 94.4027C109.535 94.6312 110.195 95.1644 110.424 95.8499C109.764 95.5706 109.18 95.4691 108.596 95.4691C108.469 95.4691 108.316 95.4945 108.189 95.4945C108.063 95.5199 107.91 95.5199 107.783 95.5706C107.707 95.596 107.656 95.596 107.58 95.596L107.377 95.6468C107.225 95.6722 107.123 95.723 106.971 95.7738C106.463 95.9515 105.955 96.2054 105.473 96.5609C104.99 96.9163 104.508 97.3226 103.975 97.8304Z" fill="#1F1F39"/>
<path d="M120.504 92.7776C120.479 92.0921 120.732 91.4065 121.164 90.8479C121.596 90.2894 122.256 89.8323 122.992 89.6546C123.17 89.6292 123.373 89.5784 123.551 89.553C123.729 89.553 123.906 89.5276 124.084 89.553C124.439 89.553 124.795 89.6292 125.125 89.7308C125.455 89.8323 125.785 90.0101 126.064 90.2386C126.191 90.3655 126.318 90.4925 126.42 90.6194C126.522 90.7718 126.623 90.9241 126.648 91.1019C126.344 90.9749 126.039 90.8987 125.76 90.8733C125.481 90.8226 125.201 90.8226 124.922 90.8226C124.643 90.848 124.389 90.848 124.109 90.8987C123.982 90.8987 123.83 90.9495 123.703 90.9495C123.576 90.9749 123.449 91.0003 123.322 91.0257C122.84 91.1526 122.383 91.3558 121.926 91.6605C121.469 91.9398 121.012 92.3206 120.504 92.7776Z" fill="#1F1F39"/>
<path d="M115.172 93.6154C115.908 94.0471 116.568 94.6057 117.152 95.2404C117.457 95.5451 117.711 95.9006 117.965 96.256C118.219 96.6115 118.422 97.0178 118.574 97.4494C118.6 97.5764 118.65 97.6525 118.676 97.7795C118.701 97.9064 118.727 98.0334 118.727 98.1857C118.727 98.465 118.676 98.7189 118.549 98.9728C118.32 99.4553 117.965 99.7853 117.609 100.039C116.848 100.547 116.035 100.826 115.172 100.928C115.908 100.496 116.619 100.065 117.178 99.5314C117.457 99.2775 117.686 98.9728 117.812 98.6682C117.863 98.5158 117.889 98.3635 117.889 98.2365C117.889 98.1603 117.889 98.0842 117.863 98.008C117.863 97.9318 117.812 97.8303 117.787 97.7541C117.66 97.3986 117.482 97.0431 117.279 96.7131C117.076 96.3576 116.873 96.0275 116.619 95.6974C116.187 94.9865 115.68 94.3264 115.172 93.6154Z" fill="#1F1F39"/>
<path d="M110.982 105.676L123.017 103.162C123.017 103.162 125.252 110.45 122.738 112.963C120.224 115.477 113.75 115.883 112.099 111.287C110.449 106.692 110.982 105.676 110.982 105.676Z" fill="#F95368"/>
<path d="M123.932 109.485C122.383 108.824 120.225 108.342 117.711 109.027C115.223 109.713 113.598 111.084 112.582 112.252C114.766 115.781 120.428 115.274 122.738 112.938C123.551 112.151 123.855 110.856 123.932 109.485Z" fill="#F9ACC0"/>
<path d="M129.153 100.635C132.102 100.007 134.18 98.0301 133.794 96.2196C133.409 94.4091 130.706 93.4506 127.757 94.0786C124.808 94.7066 122.73 96.6833 123.115 98.4938C123.501 100.304 126.204 101.263 129.153 100.635Z" fill="#F9ACC0"/>
<path d="M106.246 106.349C109.195 105.721 111.273 103.744 110.887 101.934C110.502 100.124 107.799 99.1649 104.85 99.7929C101.901 100.421 99.8228 102.398 100.208 104.208C100.594 106.019 103.297 106.977 106.246 106.349Z" fill="#F9ACC0"/>
<path d="M115.07 121.723C111.465 121.723 110.018 120.911 109.941 120.885C109.738 120.758 109.662 120.504 109.789 120.301C109.916 120.098 110.17 120.022 110.348 120.149C110.373 120.174 112.328 121.19 117.254 120.784C121.088 120.479 123.475 118.905 123.5 118.905C123.703 118.778 123.957 118.829 124.084 119.032C124.211 119.235 124.16 119.489 123.957 119.616C123.856 119.692 121.367 121.317 117.305 121.647C116.492 121.698 115.731 121.723 115.07 121.723Z" fill="#1F1F39"/>
<path d="M106.704 91.8181C108.149 90.9837 108.905 89.5887 108.393 88.7022C107.882 87.8157 106.295 87.7734 104.85 88.6078C103.405 89.4421 102.648 90.8372 103.16 91.7237C103.672 92.6102 105.258 92.6524 106.704 91.8181Z" fill="#1F1F39"/>
<path d="M125.033 85.3361C125.088 84.314 123.782 83.4122 122.116 83.322C120.45 83.2318 119.054 83.9873 118.999 85.0094C118.943 86.0315 120.249 86.9333 121.915 87.0235C123.582 87.1137 124.977 86.3582 125.033 85.3361Z" fill="#1F1F39"/>
<path d="M134.52 88.0294L132.006 75.9942C132.006 75.9942 140.689 68.1485 134.52 58.9064C128.35 49.6642 116.873 53.295 116.873 53.295C116.873 53.295 113.496 41.8185 100.064 42.6564C86.6328 43.4942 87.4707 59.1857 87.4707 59.1857C87.4707 59.1857 84.8555 55.3771 79.0664 58.0685C74.8769 60.0235 77.1113 67.0314 77.1113 67.0314C77.1113 67.0314 67.0312 67.8692 64.5176 77.67C61.75 88.4103 68.1484 93.6407 70.9668 95.0372C73.7598 96.4337 76.2988 95.8751 76.2988 95.8751C76.2988 95.8751 70.9668 98.9474 72.9473 104.838C74.9023 110.729 83.3066 110.17 83.3066 110.17L100.242 124.516L134.52 88.0294Z" fill="#F99A3D"/>
<path d="M127.791 89.9846C127.791 89.9846 130.686 86.8362 134.57 87.5725C138.455 88.3089 139.572 92.6253 137.871 97.4749C136.17 102.324 129.238 104.305 129.238 104.305L127.791 89.9846Z" fill="#C43D28"/>
<path d="M96.1289 101.182C96.1289 101.182 95.0117 98.1096 90.5176 98.6681C86.0488 99.2267 84.6269 105.397 87.7246 109.865C90.8222 114.334 98.3633 113.776 98.3633 113.776C98.3633 113.776 100.039 120.504 100.598 129.188C101.156 137.871 101.156 136.475 101.156 136.475C101.156 136.475 105.93 140.664 115.451 138.709C124.973 136.754 124.414 132.26 124.414 132.26C124.414 132.26 124.135 130.863 123.018 127.207C121.9 123.551 121.342 119.641 121.342 119.641C121.342 119.641 133.098 115.172 131.98 101.156C130.863 87.1408 125.582 75.3342 125.582 75.3342H122.51C122.51 75.3342 122.23 79.5236 118.879 80.6662C115.527 81.8088 111.033 78.7111 111.033 78.7111C111.033 78.7111 110.475 83.7639 105.422 85.7189C100.369 87.674 96.1797 86.8361 96.1797 86.8361C96.1797 86.8361 98.668 98.3888 96.1289 101.182Z" fill="#DA5742"/>
<path d="M121.113 119.793C112.734 123.094 110.195 120.555 110.195 120.555C113.268 128.934 118.396 130.533 124.211 131.371C124.008 130.584 123.652 129.264 123.018 127.258C121.9 123.627 121.342 119.692 121.342 119.692" fill="#C43D28"/>
<path d="M96.459 100.776C96.3574 100.928 96.2558 101.08 96.1543 101.207C96.1543 101.207 95.0371 98.1349 90.543 98.6935C86.0742 99.2521 84.6523 105.422 87.75 109.891C90.6191 114.08 98.414 118.092 99.3027 118.041C99.5312 116.442 97.373 103.137 96.459 100.776Z" fill="#C43D28"/>
<path d="M131.422 98.9476C131.219 98.9476 131.066 98.7952 131.066 98.5921C131.066 98.4905 131.066 96.0784 131.803 93.8694C132.539 91.635 134.012 90.1624 134.062 90.0862C134.215 89.9339 134.443 89.9339 134.57 90.0862C134.723 90.2386 134.723 90.4671 134.57 90.594C134.545 90.6194 133.174 92.0159 132.488 94.0979C131.777 96.2054 131.777 98.5667 131.777 98.5921C131.777 98.7952 131.625 98.9476 131.422 98.9476Z" fill="#1F1F39"/>
<path d="M97.5509 110.018C97.3985 110.018 97.2716 109.942 97.1954 109.815C97.17 109.789 95.3926 106.946 93.2598 105.6C91.127 104.254 88.2579 103.848 88.2325 103.848C88.004 103.822 87.8516 103.594 87.877 103.365C87.9024 103.137 88.1309 102.985 88.3594 103.01C88.4864 103.035 91.4063 103.467 93.6915 104.889C95.9766 106.336 97.8048 109.231 97.8809 109.358C98.0079 109.561 97.9317 109.815 97.754 109.942C97.7032 109.992 97.627 110.018 97.5509 110.018Z" fill="#1F1F39"/>
<path d="M103.975 97.8304C103.975 97.0941 104.254 96.4085 104.686 95.7992C105.143 95.2152 105.777 94.7074 106.514 94.4535C106.895 94.3265 107.25 94.2503 107.656 94.2503C108.037 94.2249 108.443 94.2757 108.799 94.4027C109.535 94.6312 110.195 95.1644 110.424 95.8499C109.764 95.5706 109.18 95.4691 108.596 95.4691C108.469 95.4691 108.316 95.4945 108.189 95.4945C108.063 95.5199 107.91 95.5199 107.783 95.5706C107.707 95.596 107.656 95.596 107.58 95.596L107.377 95.6468C107.225 95.6722 107.123 95.723 106.971 95.7738C106.463 95.9515 105.955 96.2054 105.473 96.5609C104.99 96.9163 104.508 97.3226 103.975 97.8304Z" fill="#1F1F39"/>
<path d="M120.504 92.7776C120.479 92.0921 120.732 91.4065 121.164 90.8479C121.596 90.2894 122.256 89.8323 122.992 89.6546C123.17 89.6292 123.373 89.5784 123.551 89.553C123.729 89.553 123.906 89.5276 124.084 89.553C124.439 89.553 124.795 89.6292 125.125 89.7308C125.455 89.8323 125.785 90.0101 126.064 90.2386C126.191 90.3655 126.318 90.4925 126.42 90.6194C126.522 90.7718 126.623 90.9241 126.648 91.1019C126.344 90.9749 126.039 90.8987 125.76 90.8733C125.481 90.8226 125.201 90.8226 124.922 90.8226C124.643 90.848 124.389 90.848 124.109 90.8987C123.982 90.8987 123.83 90.9495 123.703 90.9495C123.576 90.9749 123.449 91.0003 123.322 91.0257C122.84 91.1526 122.383 91.3558 121.926 91.6605C121.469 91.9398 121.012 92.3206 120.504 92.7776Z" fill="#1F1F39"/>
<path d="M115.172 93.6154C115.908 94.0471 116.568 94.6057 117.152 95.2404C117.457 95.5451 117.711 95.9006 117.965 96.256C118.219 96.6115 118.422 97.0178 118.574 97.4494C118.6 97.5764 118.65 97.6525 118.676 97.7795C118.701 97.9064 118.727 98.0334 118.727 98.1857C118.727 98.465 118.676 98.7189 118.549 98.9728C118.32 99.4553 117.965 99.7853 117.609 100.039C116.848 100.547 116.035 100.826 115.172 100.928C115.908 100.496 116.619 100.065 117.178 99.5314C117.457 99.2775 117.686 98.9728 117.812 98.6682C117.863 98.5158 117.889 98.3635 117.889 98.2365C117.889 98.1603 117.889 98.0842 117.863 98.008C117.863 97.9318 117.812 97.8303 117.787 97.7541C117.66 97.3986 117.482 97.0431 117.279 96.7131C117.076 96.3576 116.873 96.0275 116.619 95.6974C116.187 94.9865 115.68 94.3264 115.172 93.6154Z" fill="#1F1F39"/>
<path d="M110.982 105.676L123.017 103.162C123.017 103.162 125.252 110.45 122.738 112.963C120.224 115.477 113.75 115.883 112.099 111.287C110.449 106.692 110.982 105.676 110.982 105.676Z" fill="white"/>
<path d="M123.932 109.485C122.383 108.824 120.225 108.342 117.711 109.027C115.223 109.713 113.598 111.084 112.582 112.252C114.766 115.781 120.428 115.274 122.738 112.938C123.551 112.151 123.855 110.856 123.932 109.485Z" fill="#F9D2DD"/>
<path d="M129.153 100.635C132.102 100.007 134.18 98.0301 133.794 96.2196C133.409 94.4091 130.706 93.4506 127.757 94.0786C124.808 94.7066 122.73 96.6833 123.115 98.4938C123.501 100.304 126.204 101.263 129.153 100.635Z" fill="#C43D28"/>
<path d="M106.246 106.349C109.195 105.721 111.273 103.744 110.887 101.934C110.502 100.124 107.799 99.1649 104.85 99.7929C101.901 100.421 99.8228 102.398 100.208 104.208C100.594 106.019 103.297 106.977 106.246 106.349Z" fill="#C43D28"/>
<path d="M114.766 121.774C111.414 121.774 110.018 121.037 109.941 120.987C109.738 120.885 109.662 120.631 109.789 120.428C109.891 120.225 110.145 120.149 110.348 120.25C110.373 120.276 112.328 121.266 117.254 120.809C118.6 120.682 119.92 120.301 121.19 119.717C121.393 119.616 121.647 119.717 121.748 119.92C121.85 120.123 121.748 120.377 121.545 120.479C120.199 121.114 118.777 121.52 117.33 121.647C116.365 121.723 115.502 121.774 114.766 121.774Z" fill="#1F1F39"/>
<path d="M106.704 91.8181C108.149 90.9837 108.905 89.5887 108.393 88.7022C107.882 87.8157 106.295 87.7734 104.85 88.6078C103.405 89.4421 102.648 90.8372 103.16 91.7237C103.672 92.6102 105.258 92.6524 106.704 91.8181Z" fill="white"/>
<path d="M125.033 85.3361C125.088 84.314 123.782 83.4122 122.116 83.322C120.45 83.2318 119.054 83.9873 118.999 85.0094C118.943 86.0315 120.249 86.9333 121.915 87.0235C123.582 87.1137 124.977 86.3582 125.033 85.3361Z" fill="white"/>
<path d="M115.934 196.219C115.426 196.219 114.918 196.219 114.385 196.219V195.711C115.426 195.736 116.416 195.736 117.432 195.711V196.219C116.949 196.219 116.441 196.219 115.934 196.219ZM120.504 196.143L120.479 195.635C121.469 195.609 122.484 195.584 123.525 195.533L123.551 196.041C122.51 196.092 121.469 196.117 120.504 196.143ZM111.338 196.117C110.373 196.092 109.332 196.041 108.291 195.965L108.316 195.457C109.357 195.508 110.398 195.559 111.363 195.609L111.338 196.117ZM126.598 195.889L126.572 195.381C127.562 195.33 128.578 195.254 129.619 195.203L129.645 195.711C128.604 195.787 127.588 195.838 126.598 195.889ZM105.244 195.787C104.203 195.711 103.188 195.635 102.197 195.559L102.248 195.051C103.238 195.127 104.254 195.203 105.295 195.279L105.244 195.787ZM132.691 195.508L132.641 195C133.707 194.924 134.723 194.848 135.688 194.746L135.738 195.254C134.773 195.33 133.758 195.432 132.691 195.508ZM99.1504 195.33C98.084 195.228 97.043 195.152 96.1035 195.051L96.1543 194.543C97.0938 194.619 98.1094 194.721 99.2012 194.822L99.1504 195.33ZM138.76 194.975L138.709 194.467C139.902 194.365 140.918 194.238 141.73 194.162L141.781 194.67C140.994 194.771 139.953 194.873 138.76 194.975ZM93.0566 194.746C91.3809 194.568 90.2891 194.441 90.1621 194.441H90.0605V193.934H90.2129C90.2129 193.934 91.3301 194.061 93.1328 194.238L93.0566 194.746ZM144.854 194.365L144.777 193.857C145.742 193.73 146.682 193.35 147.469 192.791L147.773 193.197C146.91 193.832 145.895 194.238 144.854 194.365ZM87.0137 193.629C86.0742 193.121 85.2871 192.41 84.6777 191.521L85.1094 191.242C85.668 192.055 86.4043 192.715 87.2676 193.197L87.0137 193.629ZM149.83 190.861L149.373 190.633C149.83 189.769 150.059 188.805 150.059 187.814H150.566C150.566 188.855 150.312 189.922 149.83 190.861ZM83.5859 188.602C83.5605 188.348 83.5352 188.068 83.5352 187.814V187.789L83.8652 185.529L84.373 185.605L84.043 187.84C84.043 188.068 84.0684 188.322 84.0938 188.551L83.5859 188.602ZM149.932 186.926L149.5 183.904L150.008 183.828L150.439 186.85L149.932 186.926ZM84.8047 182.559L84.2969 182.482L84.7285 179.461L85.2363 179.537L84.8047 182.559ZM149.043 180.908L148.611 177.887L149.119 177.811L149.551 180.832L149.043 180.908ZM85.6934 176.541L85.1855 176.465L85.6172 173.443L86.125 173.519L85.6934 176.541ZM148.154 174.865L147.723 171.844L148.23 171.768L148.662 174.789L148.154 174.865ZM86.582 170.523L86.0742 170.447L86.5059 167.426L87.0137 167.502L86.582 170.523ZM147.266 168.848L146.834 165.826L147.342 165.75L147.773 168.771L147.266 168.848ZM87.3945 164.48L86.8867 164.404C87.0137 163.363 87.4199 162.348 88.0293 161.484L88.4355 161.764C87.8769 162.576 87.5215 163.516 87.3945 164.48ZM146.275 162.906C145.895 162.018 145.311 161.205 144.549 160.57L144.879 160.189C145.691 160.875 146.326 161.738 146.732 162.703L146.275 162.906ZM117 160.926C116.238 160.926 115.477 160.926 114.689 160.9V160.393C115.73 160.418 116.746 160.418 117.736 160.418V160.926C117.482 160.926 117.254 160.926 117 160.926ZM120.809 160.875V160.367C121.824 160.342 122.84 160.316 123.855 160.266L123.881 160.773C122.84 160.824 121.799 160.85 120.809 160.875ZM111.643 160.799C110.652 160.748 109.637 160.697 108.596 160.646L108.621 160.139C109.662 160.189 110.678 160.266 111.668 160.291L111.643 160.799ZM126.902 160.621L126.877 160.113C127.893 160.062 128.908 159.986 129.924 159.91L129.975 160.418C128.934 160.494 127.918 160.57 126.902 160.621ZM105.549 160.443C104.533 160.367 103.518 160.291 102.502 160.189L102.553 159.682C103.568 159.783 104.584 159.859 105.6 159.936L105.549 160.443ZM132.971 160.139L132.92 159.631C133.961 159.529 134.977 159.428 135.941 159.301L135.992 159.809C135.053 159.936 134.012 160.037 132.971 160.139ZM99.4551 159.885C98.4395 159.783 97.3984 159.656 96.4082 159.529L96.459 159.021C97.4492 159.148 98.4648 159.25 99.4805 159.377L99.4551 159.885ZM90.6191 159.859L90.3906 159.402C91.3301 158.92 92.3711 158.641 93.4375 158.641V159.148C92.4473 159.148 91.4824 159.402 90.6191 159.859ZM139.039 159.402L138.963 158.894C140.004 158.742 140.562 158.641 140.562 158.641H140.613C141.096 158.641 141.604 158.691 142.061 158.793L141.959 159.301C141.527 159.199 141.07 159.148 140.639 159.148C140.537 159.174 139.979 159.275 139.039 159.402Z" fill="#EAEAFF"/>
<path d="M116.086 193.832C107.529 193.832 94.6816 192.385 93.9707 192.309C90.6953 192.283 88.0293 189.617 88.0293 186.316V186.24L90.8477 166.969C90.873 163.693 93.5391 161.027 96.8398 161.027H96.916C97.0176 161.053 107.402 162.551 117 162.551C128.629 162.551 137.084 161.053 137.16 161.027H137.262C140.537 161.027 143.229 163.693 143.254 166.969L146.072 186.266V186.291C146.072 189.592 143.406 192.258 140.131 192.283C139.42 192.385 126.928 193.832 116.086 193.832ZM89.0449 186.367C89.0703 189.084 91.2793 191.293 94.0215 191.293H94.0723C94.1992 191.318 107.377 192.816 116.086 192.816C127.105 192.816 139.902 191.318 140.029 191.293H140.08C142.797 191.293 145.031 189.084 145.057 186.367L142.238 167.07V167.045C142.238 164.328 140.029 162.094 137.312 162.068C136.602 162.195 128.273 163.592 117 163.592C107.631 163.592 97.5254 162.17 96.8144 162.068C94.0977 162.094 91.8887 164.303 91.8887 167.045V167.121L89.0449 186.367Z" fill="#EAEAFF"/>
</svg>
